<?xml version="1.0" encoding="UTF-8"?>
<svg xmlns="http://www.w3.org/2000/svg" version="1.1" viewBox="0 0 512 512">
  <defs>
    <style>
      .cls-1 {
        fill: #000;
        fill-rule: evenodd;
        stroke-width: 0px;
      }
    </style>
  </defs>
  <g id="Layer_1" data-name="Layer 1" image-rendering="optimizeQuality" shape-rendering="geometricPrecision" text-rendering="geometricPrecision">
    <path class="cls-1" d="M371.4,302.1l14.2,14.2c2.9,2.9,2.9,7.6,0,10.5l-19.3,19.3,19.3,19.3c2.9,2.9,2.9,7.6,0,10.5l-14.2,14.2c-2.9,2.9-7.6,2.9-10.5,0l-19.3-19.3-19.3,19.3c-2.9,2.9-7.6,2.9-10.5,0l-14.2-14.2c-2.9-2.9-2.9-7.6,0-10.5l19.3-19.3-19.3-19.3c-2.9-2.9-2.9-7.6,0-10.5l14.2-14.2c2.9-2.9,7.6-2.9,10.5,0l19.3,19.3,19.3-19.3c2.9-2.9,7.6-2.9,10.5,0ZM341.6,234.9c9.2,0,18.1,1.1,26.6,3.2,1-3.8,0-7.9-2.7-10.9l-81.7-81.7c-4.3-4.4-11.6-4.5-16.1-.3l-122.3,122.4c-4.5,4.5-4.5,11.9,0,16.4l81.4,81.4c1.6,1.6,3.7,2.7,5.8,3.1-1.5-7.2-2.2-14.7-2.2-22.3,0-30.7,12.4-58.5,32.6-78.6,20.1-20.1,47.9-32.6,78.6-32.6h0ZM383.5,243c9.8,4,18.8,9.3,27,15.7l30.4-30.4c-.8-.4-1.5-.9-2.2-1.7l-11.8-11.8c-.3-.3-.5-.6-.8-.9-6.1-8.5,5.5-18.1,12.6-10.9l11.8,11.8c.3.3.5.6.8.9.3.4.6.9.8,1.4l41.6-41.6c2.5-2.1,2.3-6.4.2-8.6l-37.7-37.7c-4.4,2-9.1,3.4-13.8,4.2-43.9,7.2-77.2-37.3-59.3-77.3l-37.7-37.7c-2.4-2.4-6.4-2.4-8.8,0l-41.4,41.4c.5.3,1,.7,1.4,1.2l11.8,11.8c.3.3.5.6.8.9,6.1,8.5-5.5,18.1-12.6,10.9l-11.8-11.8c-.3-.3-.5-.6-.8-.9l-.4-.5-212.5,212.5c.7.4,1.4.9,2.1,1.6l11.8,11.8c.3.3.5.6.8.9,6.1,8.5-5.5,18-12.6,10.9l-11.8-11.8c-.3-.3-.5-.6-.8-.9-.3-.4-.5-.8-.7-1.2l-41.4,41.4c-2.4,2.3-2.3,6.4,0,8.8l37.4,37.4c4.4-2.2,9.2-3.8,13.9-4.7,38.6-7.4,71.7,26.5,64.4,64.4-.9,4.8-2.5,9.5-4.7,13.9l37.4,37.4c2.4,2.4,6.4,2.4,8.8,0l41.3-41.3c-.6-.4-1.1-.8-1.6-1.3l-11.8-11.8c-.3-.3-.5-.6-.8-.9-6.1-8.5,5.5-18,12.6-10.9l11.8,11.8c.3.3.5.6.8.9l.5.7,25.9-25.9c-7.1-9.1-12.9-19.3-17-30.3-7.9.6-15.9-2-21.9-8l-81.4-81.4c-10.7-10.7-10.7-28.5,0-39.2l122.6-122.5c10.8-10.3,28.1-10.1,38.6.5l81.9,81.9c7,7.4,9.2,17.8,6.4,27.1h0ZM422.7,270c18.7,19.9,30.1,46.7,30.1,76.1s-12.5,58.5-32.6,78.6c-20.1,20.1-48,32.6-78.6,32.6s-56.2-11.5-76.1-30.1l-78.2,78.2-.5.4c-8.8,8.5-23,8.3-31.7-.4l-41.8-41.8c-2.8-2.8-3.1-7.2-1-10.5,2.4-3.8,4.2-7.8,5.2-12,6.7-27.6-18-53.5-46.4-46.7-4.1,1-8.2,2.7-11.8,5.1-3.3,2.4-7.8,2.1-10.7-.7l-41.9-41.9c-8.7-8.7-8.9-23.1,0-32L324.7,6.6c8.8-8.8,23.2-8.9,32.1,0l42.1,42.1c2.6,2.7,3.1,6.9,1.2,10.1-17.6,28,7.6,64.7,40.8,57.8,4.1-.9,8.1-2.4,11.8-4.6,3.4-2.1,7.7-1.8,10.6,1l42.1,42.1c8.8,8.8,8.8,23.3,0,32.1l-82.7,82.7ZM332.2,96.5c-7.2-7.1-18.7,2.4-12.6,10.9.3.3.5.6.8.9l11.8,11.8c7.1,7.2,18.7-2.4,12.6-10.9-.3-.3-.5-.6-.8-.9l-11.8-11.8h0ZM367.7,132c-7.1-7.1-18.7,2.4-12.6,10.9.3.3.5.6.8.9l11.8,11.8c7.1,7.1,18.7-2.4,12.6-10.9-.2-.3-.5-.6-.8-.9l-11.8-11.8ZM403.2,167.5c-7.1-7.1-18.8,2.4-12.6,10.9.3.3.5.6.8.9l11.8,11.8c7.1,7.1,18.7-2.4,12.6-10.9-.3-.3-.5-.6-.8-.9l-11.8-11.8h0ZM108.8,320.9c-7.1-7.1-18.7,2.4-12.6,10.9.3.3.5.6.8.9l11.8,11.8c7.1,7.2,18.7-2.4,12.6-10.9-.3-.3-.5-.6-.8-.9,0,0-11.8-11.8-11.8-11.8ZM144.3,356.4c-7.1-7.1-18.7,2.4-12.6,10.9.3.3.5.6.8.9l11.8,11.8c7.1,7.1,18.7-2.4,12.6-10.9-.3-.3-.5-.6-.8-.9l-11.8-11.8h0ZM179.8,391.9c-7.1-7.1-18.7,2.4-12.6,10.9.3.3.5.6.8.9l11.8,11.8c7.1,7.1,18.7-2.4,12.6-10.9-.3-.3-.5-.6-.8-.9l-11.8-11.8h0ZM436.1,346.1c0,52.2-42.3,94.5-94.5,94.5s-94.5-42.3-94.5-94.5,42.3-94.5,94.5-94.5,94.5,42.3,94.5,94.5h0Z"/>
  </g>
</svg>