<?xml version="1.0" standalone="no"?>
<!DOCTYPE svg PUBLIC "-//W3C//DTD SVG 20010904//EN"
 "http://www.w3.org/TR/2001/REC-SVG-20010904/DTD/svg10.dtd">
<svg version="1.0" xmlns="http://www.w3.org/2000/svg"
 width="512.000000pt" height="512.000000pt" viewBox="0 0 512.000000 512.000000"
 preserveAspectRatio="xMidYMid meet">

<g transform="translate(0.000000,512.000000) scale(0.100000,-0.100000)"
fill="#000000" stroke="none">
<path d="M1183 4570 c-86 -28 -161 -98 -199 -184 -27 -62 -30 -65 -85 -85 -78
-29 -141 -88 -181 -169 l-33 -66 -3 -241 c-3 -240 -3 -240 -30 -290 -23 -43
-27 -61 -27 -135 0 -76 3 -91 30 -139 29 -53 99 -117 139 -127 17 -4 25 -22
42 -92 39 -160 132 -309 250 -405 l64 -51 0 -79 0 -79 -71 -74 c-83 -85 -60
-76 -419 -170 -270 -70 -309 -85 -369 -139 -77 -70 -84 -92 -193 -643 -79
-403 -99 -519 -95 -564 10 -116 84 -221 195 -275 l57 -28 575 -3 575 -3 49
458 c26 252 51 472 55 488 7 27 11 30 52 33 29 2 50 -2 56 -10 6 -7 32 -213
57 -458 26 -245 50 -460 53 -478 l5 -33 572 3 571 3 60 28 c119 56 195 172
195 298 0 92 -185 1020 -215 1085 -30 61 -94 127 -150 154 -22 10 -161 51
-310 90 -148 39 -283 76 -298 82 -16 6 -60 43 -98 82 l-69 71 0 81 0 80 65 58
c77 68 141 149 182 231 34 67 73 185 73 221 0 18 11 29 48 48 97 49 156 146
156 258 0 56 -5 77 -32 129 l-32 62 0 169 c0 197 -13 273 -70 393 -74 159
-194 282 -345 355 -143 69 -166 72 -495 76 -274 4 -299 2 -357 -16z m102 -699
c137 -30 330 -51 538 -59 186 -8 187 -8 215 -35 25 -25 27 -35 32 -127 5 -86
9 -103 28 -122 20 -20 31 -23 96 -21 60 3 78 -1 98 -17 83 -65 47 -186 -59
-203 -60 -10 -81 -40 -93 -129 -19 -150 -66 -247 -174 -353 -225 -222 -582
-220 -806 5 -97 97 -170 256 -170 371 0 61 -45 109 -101 109 -51 0 -108 79
-92 128 24 77 59 96 154 87 93 -9 110 7 133 133 29 155 67 252 99 252 7 0 53
-9 102 -19z m160 -1398 c90 -18 214 -13 305 12 30 8 56 15 58 15 1 0 2 -17 2
-37 -1 -34 -13 -51 -116 -163 -63 -69 -118 -126 -123 -128 -5 -2 -63 56 -130
127 -109 117 -121 134 -121 167 0 33 2 36 23 30 12 -4 58 -14 102 -23z m-98
-279 c43 -47 79 -92 81 -99 4 -19 -147 -120 -160 -107 -14 14 -88 183 -88 201
0 15 68 91 81 91 4 0 43 -39 86 -86z m571 43 l43 -44 -42 -99 c-23 -54 -46
-103 -50 -108 -9 -10 -169 90 -169 105 0 9 162 189 170 189 3 0 25 -19 48 -43z
m-302 -293 c30 -18 44 -32 44 -47 0 -37 -28 -130 -42 -138 -16 -11 -89 -11
-104 -1 -8 5 -44 124 -44 146 0 8 81 66 92 66 5 0 29 -12 54 -26z"/>
<path d="M3045 4291 c-78 -19 -89 -37 -160 -258 -40 -124 -50 -146 -78 -166
-33 -24 -153 -77 -174 -77 -9 0 -13 -23 -13 -82 0 -64 5 -95 26 -146 50 -126
41 -255 -28 -384 -28 -52 -127 -158 -148 -158 -4 0 -13 -21 -20 -47 -33 -133
-118 -278 -230 -397 l-72 -75 33 -40 c30 -35 44 -42 130 -65 54 -14 100 -26
103 -26 3 0 6 42 6 94 0 396 275 737 670 831 107 25 289 23 395 -4 254 -67
471 -246 576 -476 194 -428 14 -930 -407 -1135 -123 -61 -216 -82 -366 -84
-122 -1 -127 -2 -122 -21 2 -11 32 -155 65 -320 46 -227 62 -330 66 -422 5
-109 4 -123 -10 -123 -13 0 -57 -75 -57 -96 0 -2 60 -4 134 -4 214 0 225 9
296 230 27 86 59 168 69 182 27 34 178 98 231 98 32 0 75 -17 189 -76 151 -78
201 -91 248 -65 10 5 95 87 190 183 145 147 172 179 178 212 7 34 0 54 -74
203 -52 106 -81 176 -81 198 0 46 67 201 97 224 13 11 95 43 181 72 157 52
192 71 218 121 21 40 20 487 -1 528 -25 48 -60 66 -223 119 -122 39 -163 56
-183 78 -33 36 -89 173 -89 217 0 23 27 89 81 198 108 220 114 194 -100 411
-91 93 -178 175 -193 183 -52 27 -90 18 -260 -67 -131 -65 -169 -79 -193 -75
-64 13 -186 69 -209 97 -14 16 -46 96 -76 186 -58 174 -80 208 -146 223 -46
11 -425 11 -469 1z"/>
</g>
</svg>
