<?xml version="1.0" standalone="no"?>
<!DOCTYPE svg PUBLIC "-//W3C//DTD SVG 20010904//EN"
 "http://www.w3.org/TR/2001/REC-SVG-20010904/DTD/svg10.dtd">
<svg version="1.0" xmlns="http://www.w3.org/2000/svg"
 width="512.000000pt" height="512.000000pt" viewBox="0 0 512.000000 512.000000"
 preserveAspectRatio="xMidYMid meet">

<g transform="translate(0.000000,512.000000) scale(0.100000,-0.100000)"
fill="#000000" stroke="none">
<path d="M2160 4947 c-39 -12 -140 -107 -140 -131 0 -11 -10 -16 -33 -16 -68
0 -154 -22 -234 -61 -146 -70 -260 -212 -298 -370 -11 -50 -15 -133 -15 -370
l0 -306 -24 -23 c-44 -41 -56 -98 -56 -270 0 -192 10 -231 80 -293 55 -49 103
-67 182 -67 l55 0 7 -78 c20 -239 155 -485 339 -617 l56 -40 1 -171 0 -171
-97 -65 -98 -65 -438 -117 c-270 -72 -461 -128 -496 -145 -127 -65 -220 -167
-277 -306 l-29 -70 -3 -493 -3 -492 25 -25 c44 -44 117 -23 131 38 3 12 6 229
8 482 l2 460 24 60 c29 72 127 175 194 205 25 11 227 69 451 128 l406 109 142
-251 c79 -138 153 -261 166 -274 16 -17 31 -23 54 -20 31 3 32 2 50 -67 9 -38
18 -81 18 -95 0 -14 -34 -177 -75 -363 -41 -185 -75 -348 -75 -362 0 -35 42
-75 78 -75 30 0 67 28 76 57 6 19 146 651 146 658 0 3 44 5 98 5 l97 0 73
-333 c40 -182 80 -342 88 -354 31 -48 105 -42 130 11 16 31 13 45 -65 395
l-81 363 21 83 c18 72 23 82 40 78 53 -14 71 9 225 278 83 144 155 259 162
259 31 0 804 -211 847 -231 103 -48 190 -161 214 -277 7 -34 11 -211 11 -498
l0 -445 25 -24 c43 -44 115 -23 130 38 4 13 5 232 3 487 -3 448 -4 467 -26
531 -28 83 -88 177 -155 241 -88 85 -165 113 -637 239 l-425 112 -97 65 -98
65 0 174 c0 95 4 173 8 173 5 0 39 26 78 59 177 149 287 361 310 599 l7 72 61
0 c101 1 183 49 229 135 20 37 22 54 22 225 0 171 -2 188 -22 226 -12 22 -29
46 -37 53 -14 12 -16 53 -16 318 0 334 -8 401 -60 525 -54 130 -171 264 -293
337 -31 18 -96 47 -144 65 l-88 31 -450 2 c-313 1 -461 -2 -485 -10z m-81
-1070 c38 -66 127 -158 189 -194 24 -15 74 -38 111 -52 l66 -26 418 -3 419 -3
-4 -347 c-4 -345 -4 -347 -31 -427 -38 -115 -91 -199 -182 -290 -91 -91 -175
-144 -290 -182 -71 -23 -96 -26 -215 -26 -119 0 -144 3 -215 26 -114 38 -198
90 -290 182 -91 91 -143 174 -182 290 l-27 80 -4 480 c-2 351 0 491 9 523 14
50 74 122 121 145 l33 16 21 -68 c11 -37 35 -93 53 -124z m-399 -477 l0 -200
-55 0 c-46 0 -60 4 -80 25 -24 23 -25 28 -25 175 0 147 1 152 25 175 20 21 34
25 80 25 l55 0 0 -200z m1895 175 c24 -23 25 -28 25 -175 0 -147 -1 -152 -25
-175 -20 -21 -34 -25 -80 -25 l-55 0 0 200 0 200 55 0 c46 0 60 -4 80 -25z
m-1166 -1400 c46 -8 114 -15 151 -15 76 0 215 22 278 44 l42 15 0 -135 0 -136
-157 -189 c-87 -104 -160 -189 -163 -189 -3 0 -76 85 -163 189 l-157 189 0
136 0 135 42 -15 c23 -8 80 -21 127 -29z m-123 -532 c76 -91 142 -172 147
-179 5 -9 -19 -33 -79 -79 -48 -36 -88 -64 -90 -63 -14 15 -234 411 -230 415
11 11 101 72 107 72 3 1 69 -74 145 -166z m749 131 c30 -20 55 -39 55 -41 0
-3 -229 -406 -234 -411 -4 -3 -176 127 -176 134 0 6 291 354 296 354 2 0 29
-16 59 -36z"/>
<path d="M3225 775 c-25 -24 -25 -26 -25 -215 0 -189 0 -191 25 -215 l24 -25
351 0 351 0 24 25 c25 24 25 26 25 215 0 189 0 191 -25 215 l-24 25 -351 0
-351 0 -24 -25z"/>
</g>
</svg>
