<?xml version="1.0" standalone="no"?>
<!DOCTYPE svg PUBLIC "-//W3C//DTD SVG 20010904//EN"
 "http://www.w3.org/TR/2001/REC-SVG-20010904/DTD/svg10.dtd">
<svg version="1.0" xmlns="http://www.w3.org/2000/svg"
 width="512.000000pt" height="512.000000pt" viewBox="0 0 512.000000 512.000000"
 preserveAspectRatio="xMidYMid meet">

<g transform="translate(0.000000,512.000000) scale(0.100000,-0.100000)"
fill="#000000" stroke="none">
<path d="M2477 5105 c-242 -46 -528 -210 -719 -413 -192 -204 -288 -453 -317
-826 -7 -100 -10 -111 -32 -125 -53 -36 -79 -65 -106 -119 -26 -54 -28 -65
-28 -187 0 -135 11 -195 48 -270 43 -88 102 -141 191 -173 44 -16 49 -22 84
-97 86 -183 184 -329 303 -450 l59 -60 -218 -54 c-255 -63 -355 -97 -476 -159
-293 -150 -520 -421 -619 -737 -53 -169 -58 -241 -55 -720 l3 -440 26 -55 c53
-111 145 -185 259 -210 41 -8 484 -10 1720 -8 l1665 3 55 26 c69 33 110 67
149 125 62 94 63 107 58 628 -3 442 -5 476 -25 553 -98 373 -296 641 -607 818
-117 67 -213 100 -475 167 -129 33 -236 61 -238 62 -1 2 29 36 68 77 100 104
184 226 266 385 70 135 72 138 115 153 64 21 159 119 187 195 46 122 54 304
17 409 -16 46 -68 109 -107 132 -15 9 -16 18 -8 80 22 164 4 393 -40 527 -54
160 -164 294 -295 361 -56 29 -83 51 -137 115 -111 131 -271 236 -423 277 -87
23 -254 28 -348 10z m614 -810 c155 -169 285 -422 359 -699 34 -128 36 -149
14 -254 -49 -245 -179 -511 -338 -695 -113 -132 -282 -243 -420 -276 -71 -17
-201 -15 -276 4 -335 85 -649 492 -750 973 -23 108 -37 337 -26 425 l7 57 58
0 c212 0 479 42 664 104 223 74 469 226 617 380 19 20 37 35 40 34 3 -2 26
-25 51 -53z m-820 -2101 c182 -74 416 -74 598 0 l63 26 302 -76 c416 -104 485
-129 638 -231 79 -53 217 -193 272 -276 52 -79 110 -207 134 -294 37 -132 44
-239 40 -644 l-3 -386 -28 -36 c-37 -49 -72 -57 -259 -57 l-158 0 0 159 c0
175 -5 191 -59 191 -50 0 -56 -18 -59 -192 l-4 -158 -368 0 -368 0 -155 622
c-132 531 -152 624 -138 626 72 16 121 72 121 140 0 60 -59 292 -83 329 -34
50 -73 63 -190 63 -116 0 -159 -15 -190 -68 -27 -47 -88 -310 -81 -350 8 -43
63 -100 103 -108 20 -4 31 -12 30 -23 0 -9 -69 -288 -152 -621 l-152 -605
-377 -3 -376 -2 -4 158 c-2 116 -7 163 -17 175 -19 24 -68 22 -81 -2 -6 -11
-10 -87 -10 -175 l0 -156 -162 0 c-194 0 -233 12 -267 79 -20 39 -21 56 -21
433 0 425 7 504 55 651 88 270 289 496 552 619 63 30 175 63 432 128 190 49
349 89 352 89 3 1 34 -11 70 -25z"/>
<path d="M2060 3584 c-147 -26 -203 -84 -202 -209 1 -127 74 -239 190 -293 75
-35 193 -37 263 -5 90 40 164 127 189 221 l11 42 54 0 c52 0 54 -1 60 -32 20
-92 102 -190 193 -231 71 -32 189 -30 262 4 113 53 182 154 188 277 6 113 -21
163 -111 203 -47 20 -68 23 -207 23 -165 1 -209 -7 -266 -50 -17 -12 -37 -37
-44 -53 -12 -30 -15 -31 -76 -31 -62 0 -63 0 -80 35 -18 39 -51 66 -104 84
-35 13 -272 24 -320 15z m265 -114 c58 -13 78 -43 73 -106 -15 -183 -229 -265
-366 -140 -51 45 -80 141 -60 196 5 17 11 30 11 30 1 0 20 7 42 15 46 16 237
20 300 5z m767 0 c54 -15 68 -34 68 -91 0 -126 -88 -213 -215 -214 -116 0
-203 81 -212 199 -5 53 -2 64 15 80 12 10 36 22 54 26 49 12 248 11 290 0z"/>
<path d="M1560 1119 c-49 -10 -230 -197 -230 -238 0 -62 1 -62 270 -59 l245 3
13 27 c10 21 10 33 1 49 -13 25 -153 178 -182 198 -28 20 -77 28 -117 20z"/>
</g>
</svg>
