<?xml version="1.0" standalone="no"?>
<!DOCTYPE svg PUBLIC "-//W3C//DTD SVG 20010904//EN"
 "http://www.w3.org/TR/2001/REC-SVG-20010904/DTD/svg10.dtd">
<svg version="1.0" xmlns="http://www.w3.org/2000/svg"
 width="512.000000pt" height="512.000000pt" viewBox="0 0 512.000000 512.000000"
 preserveAspectRatio="xMidYMid meet">

<g transform="translate(0.000000,512.000000) scale(0.100000,-0.100000)"
fill="#000000" stroke="none">
<path d="M1838 4994 c-366 -66 -660 -337 -758 -699 -17 -64 -23 -118 -27 -269
-5 -186 -6 -190 -34 -234 -60 -94 -58 -206 4 -300 33 -49 118 -108 164 -114
22 -3 29 -15 57 -99 41 -123 110 -233 204 -325 l75 -74 -19 -111 c-10 -61 -23
-117 -29 -124 -5 -8 -237 -104 -515 -215 -277 -111 -525 -213 -550 -228 -78
-44 -191 -167 -233 -253 -68 -137 -67 -124 -67 -1011 0 -711 2 -798 16 -812
14 -14 240 -16 2347 -16 1922 1 2339 3 2370 14 55 20 103 61 134 114 37 62 40
165 6 229 -12 22 -166 266 -342 541 -176 275 -331 520 -343 544 -22 42 -23 51
-26 399 l-3 356 40 12 c67 20 81 48 81 162 0 95 -1 100 -29 131 l-29 33 -437
0 -437 0 -30 -34 c-30 -33 -30 -34 -26 -136 3 -117 14 -137 80 -157 34 -10 38
-15 38 -44 l0 -32 -192 88 c-106 49 -323 148 -482 222 l-289 133 -28 105 -28
104 52 51 c104 99 180 223 222 360 19 62 25 70 51 76 177 36 263 252 164 412
-30 48 -30 50 -30 191 0 343 -90 563 -318 777 -209 196 -517 285 -804 233z
m677 -1052 l50 -41 -410 0 c-304 0 -404 3 -385 11 201 87 323 159 419 245 l54
49 111 -111 c61 -62 134 -130 161 -153z m-1335 -297 c0 -85 -2 -155 -5 -155
-14 0 -55 34 -71 58 -44 68 -35 161 23 218 18 19 38 34 43 34 6 0 10 -62 10
-155z m1550 6 c0 -82 -4 -161 -10 -175 -17 -46 -46 -55 -245 -76 -221 -24
-205 -29 -293 88 -83 108 -81 107 -177 107 -96 0 -94 1 -177 -107 -88 -117
-72 -112 -292 -88 -103 11 -196 25 -206 30 -45 24 -50 46 -50 212 l0 158 725
0 725 0 0 -149z m150 117 c18 -17 36 -43 42 -57 15 -40 12 -105 -7 -145 -15
-32 -61 -76 -79 -76 -3 0 -6 70 -6 155 0 88 4 155 9 155 5 0 24 -14 41 -32z
m-767 -355 c66 -89 98 -116 152 -127 17 -4 113 3 214 14 101 11 185 20 187 20
12 0 -1 -37 -36 -108 -68 -136 -205 -266 -347 -328 -167 -74 -389 -74 -560 2
-160 70 -310 225 -369 380 -9 25 -15 46 -13 49 3 2 92 -5 198 -16 l193 -20 51
25 c41 20 66 44 116 111 62 83 64 85 106 85 42 0 44 -1 108 -87z m513 -1121
c62 -130 111 -238 110 -239 0 -1 -54 3 -119 8 -97 8 -122 7 -146 -5 -52 -28
-53 -52 -5 -213 l37 -123 -81 -84 c-84 -87 -178 -208 -225 -289 -15 -26 -29
-47 -31 -47 -2 0 -9 37 -16 82 -6 46 -23 124 -36 175 l-24 92 30 100 c40 133
77 225 151 373 76 153 231 420 238 412 3 -3 56 -112 117 -242z m449 44 l440
-202 3 -249 c2 -186 -1 -261 -11 -295 -8 -27 -146 -252 -345 -562 -182 -285
-341 -537 -354 -560 -30 -59 -31 -156 -2 -215 l21 -43 -348 0 -349 0 0 285 c0
197 4 314 14 378 8 50 17 122 21 158 5 57 16 84 66 175 79 142 166 260 258
353 128 129 128 129 81 285 -36 120 -37 128 -7 122 12 -3 68 -8 124 -11 l103
-7 30 30 c16 17 30 40 30 51 0 12 -34 94 -76 184 -138 292 -153 327 -146 326
4 0 205 -91 447 -203z m-1694 112 c-160 -282 -221 -397 -221 -418 0 -31 31
-67 63 -75 12 -3 72 -2 132 3 61 5 112 7 114 5 2 -1 -10 -51 -27 -111 -34
-115 -38 -155 -19 -187 7 -12 52 -59 101 -105 215 -206 384 -459 470 -708 l36
-104 0 -269 0 -269 -535 0 -535 0 0 394 c0 345 -2 397 -16 410 -21 22 -61 20
-74 -3 -6 -13 -10 -160 -10 -410 l0 -391 -325 0 -325 0 0 754 c0 468 4 774 10
807 17 91 73 193 142 263 35 35 79 71 98 82 35 19 928 382 943 383 5 1 -5 -23
-22 -51z m261 -128 c218 -357 303 -534 370 -764 47 -164 70 -398 52 -530 l-7
-47 -56 108 c-107 205 -201 333 -375 511 l-120 122 37 123 c39 130 44 163 24
188 -27 35 -52 40 -169 30 -62 -5 -115 -7 -117 -5 -2 2 52 102 120 223 94 167
127 217 135 208 6 -7 54 -82 106 -167z m2530 -377 c4 -430 -10 -373 146 -616
l101 -157 -94 0 c-124 0 -215 -13 -403 -60 -215 -53 -302 -64 -446 -57 -189 8
-186 -11 -39 217 69 107 137 220 152 250 l26 55 3 368 3 367 274 0 274 0 3
-367z m-87 -1128 c19 -18 25 -35 25 -65 0 -56 -34 -90 -90 -90 -56 0 -90 34
-90 90 0 56 34 90 90 90 30 0 47 -6 65 -25z m-529 -159 c29 -29 34 -41 34 -79
0 -51 -24 -88 -69 -107 -93 -38 -189 63 -145 155 20 43 55 64 108 65 30 0 45
-7 72 -34z m879 -156 c28 -31 24 -79 -10 -107 -30 -27 -65 -25 -97 4 -24 22
-23 78 2 103 26 26 81 26 105 0z"/>
<path d="M1766 3144 c-37 -37 -5 -100 64 -128 143 -57 373 -27 415 55 19 36
19 54 -1 73 -23 24 -61 20 -80 -8 -28 -43 -127 -63 -228 -45 -37 6 -72 17 -79
25 -7 7 -18 20 -25 29 -17 19 -46 19 -66 -1z"/>
</g>
</svg>
